<svg xmlns="http://www.w3.org/2000/svg" width="500" height="500" fill="none"><path fill="#fff" d="M500 250c0 138.071-111.929 250-250 250S0 388.071 0 250 111.929 0 250 0s250 111.929 250 250Z"/><path fill="#000" fill-rule="evenodd" d="m250.25 253.468-.482.13c-68.55 18.368-136.53-13.051-151.837-70.177-15.306-57.125 27.856-118.324 96.407-136.692 68.389-18.325 136.21 12.903 151.728 69.774l-54.092 14.494c-8.746-31.804-46.925-49.198-85.472-38.87-38.676 10.363-63.077 44.712-54.5 76.72 8.576 32.008 46.882 49.554 85.559 39.191l.482-.131.001.002.483-.13c81.353-21.798 162.078 15.669 180.303 83.686 18.225 68.017-32.951 140.827-114.305 162.625-81.353 21.799-162.078-15.668-180.303-83.685a110.14 110.14 0 0 1-.296-1.129l56.019-15.01c11.467 41.756 61.301 64.671 111.552 51.206 50.413-13.508 82.155-58.514 70.899-100.525-11.257-42.01-61.25-65.116-111.662-51.608l-.483.131-.001-.002Z" clip-rule="evenodd"/></svg>