<?xml version="1.0" standalone="no"?>
<!DOCTYPE svg PUBLIC "-//W3C//DTD SVG 20010904//EN"
 "http://www.w3.org/TR/2001/REC-SVG-20010904/DTD/svg10.dtd">
<svg version="1.0" xmlns="http://www.w3.org/2000/svg"
 width="1312.000000pt" height="1312.000000pt" viewBox="0 0 1312.000000 1312.000000"
 preserveAspectRatio="xMidYMid meet">
<metadata>
Created by potrace 1.14, written by Peter Selinger 2001-2017
</metadata>
<g transform="translate(0.000000,1312.000000) scale(0.100000,-0.100000)"
fill="#000000" stroke="none">
<path d="M6061 10419 l-2701 -2700 0 -145 c0 -79 4 -144 9 -144 5 0 35 -12 67
-27 33 -15 61 -28 64 -28 3 -1 31 -13 64 -28 32 -15 64 -27 70 -27 7 0 16 -4
21 -9 14 -13 298 -136 308 -133 4 1 7 -2 7 -8 0 -6 3 -9 8 -8 4 1 23 -5 42
-14 19 -9 71 -31 115 -50 44 -20 100 -44 125 -55 219 -99 578 -253 588 -253 7
0 12 -4 12 -10 0 -5 6 -10 13 -10 7 0 85 -32 172 -71 198 -87 203 -90 295
-129 41 -18 95 -41 120 -52 90 -40 275 -121 400 -175 36 -16 75 -33 170 -76
30 -13 80 -35 110 -47 30 -13 78 -33 105 -45 28 -13 109 -48 180 -80 72 -31
146 -63 165 -72 19 -8 52 -23 73 -34 20 -10 37 -17 37 -14 0 3 17 -4 38 -14
20 -11 57 -28 82 -39 464 -203 578 -252 588 -252 7 0 12 -4 12 -10 0 -5 6 -10
13 -10 7 0 85 -32 172 -71 217 -96 205 -91 340 -149 66 -28 136 -59 155 -68
19 -9 37 -17 40 -18 6 -1 41 -16 99 -42 l44 -20 -2306 -2307 c-1269 -1268
-2307 -2310 -2307 -2316 0 -19 650 -659 669 -659 13 0 989 970 2720 2701
l2701 2700 0 142 0 142 -32 14 c-18 8 -53 23 -78 34 -25 11 -94 41 -155 67
-60 26 -130 57 -155 68 -47 21 -191 84 -248 108 -74 32 -100 43 -157 69 -33
15 -73 33 -90 40 -131 57 -366 159 -390 170 -16 7 -68 30 -115 50 -47 21 -109
48 -138 61 -29 13 -55 24 -57 24 -2 0 -32 13 -67 29 -121 55 -158 71 -168 71
-5 0 -10 4 -10 8 0 5 -6 9 -12 9 -7 0 -64 23 -127 52 -63 28 -121 51 -128 51
-7 0 -13 5 -13 10 0 6 -6 10 -13 10 -8 0 -27 6 -43 14 -16 8 -83 38 -149 66
-66 29 -140 61 -165 72 -25 11 -58 26 -75 33 -16 7 -61 27 -98 44 -38 17 -70
31 -72 31 -3 0 -30 12 -62 26 -32 14 -74 33 -93 41 -46 20 -100 44 -183 82
-37 17 -70 31 -73 31 -3 0 -35 14 -71 30 -35 17 -66 30 -68 30 -8 0 -139 60
-170 77 -16 10 -31 16 -33 15 -2 -2 -38 12 -117 48 -27 12 -63 28 -80 35 -16
7 -50 22 -75 33 -25 11 -99 43 -165 72 -66 29 -139 61 -162 71 -24 11 -64 28
-90 40 -27 11 -70 31 -98 44 -27 12 -67 28 -87 36 -21 7 -38 16 -38 19 0 4 -6
7 -12 7 -7 0 -64 23 -127 52 -63 28 -121 51 -128 51 -7 0 -13 5 -13 10 0 6 -8
10 -18 10 -10 0 -22 3 -26 7 -4 4 -46 24 -93 44 l-86 37 2306 2306 c1269 1269
2307 2311 2307 2317 0 19 -650 659 -669 659 -13 0 -991 -971 -2720 -2701z"/>
</g>
</svg>
