<svg xmlns="http://www.w3.org/2000/svg" width="3381" height="500" fill="none"><path fill="#fff" d="M500 250c0 138.071-111.929 250-250 250S0 388.071 0 250 111.929 0 250 0s250 111.929 250 250Z"/><path fill="#000" fill-rule="evenodd" d="m250.25 253.468-.482.13c-68.55 18.368-136.53-13.051-151.836-70.177-15.307-57.125 27.855-118.324 96.406-136.692 68.389-18.325 136.21 12.903 151.728 69.774l-54.092 14.494c-8.746-31.804-46.925-49.198-85.472-38.87-38.676 10.363-63.077 44.712-54.5 76.72 8.576 32.008 46.882 49.554 85.559 39.191l.482-.131.001.002.483-.13c81.353-21.798 162.078 15.669 180.303 83.686 18.225 68.017-32.951 140.827-114.305 162.625-81.353 21.799-162.078-15.668-180.303-83.685a110.14 110.14 0 0 1-.296-1.129l56.019-15.01c11.467 41.756 61.301 64.671 111.553 51.206 50.412-13.508 82.154-58.514 70.898-100.525-11.257-42.01-61.25-65.116-111.662-51.608l-.483.131-.001-.002Z" clip-rule="evenodd"/><path fill="#000" d="M720.949 424.123c-3.646 0-7.015-.391-10.107-1.172-3.06-.781-5.55-1.79-7.471-3.027l1.025-6.885c5.437 2.897 10.775 4.346 16.016 4.346 7.943 0 12.028-2.8 12.256-8.399 0-2.376-.846-4.248-2.539-5.615s-5.013-2.897-9.961-4.59l-4.053-1.416c-4.687-1.562-8.04-3.499-10.058-5.81-1.986-2.312-2.995-5.192-3.028-8.643 0-4.199 1.677-7.682 5.03-10.449 3.385-2.767 8.007-4.151 13.867-4.151 6.054 0 11.572 1.172 16.553 3.516l-2.393 6.25c-5.046-2.083-9.766-3.125-14.16-3.125-3.418 0-6.104.684-8.057 2.051-1.92 1.335-2.881 3.223-2.881 5.664 0 2.083.7 3.678 2.1 4.785 1.4 1.107 4.199 2.376 8.398 3.809a114.8 114.8 0 0 0 4.053 1.367c5.404 1.758 9.229 3.841 11.475 6.25 2.246 2.376 3.369 5.599 3.369 9.668-.065 4.948-1.839 8.789-5.322 11.523-3.484 2.702-8.187 4.053-14.112 4.053Zm61.475-44.775c-2.376-2.865-5.648-4.297-9.815-4.297-4.166 0-7.568 1.481-10.205 4.443-2.636 2.93-4.183 6.95-4.638 12.061h28.271c0-5.306-1.204-9.375-3.613-12.207Zm-8.203 44.775c-7.78 0-13.916-2.474-18.409-7.422-4.459-4.948-6.689-11.719-6.689-20.312 0-8.301 2.165-15.023 6.494-20.166 4.33-5.176 10.026-7.813 17.09-7.911 6.641 0 11.898 2.279 15.772 6.836 3.906 4.525 5.859 10.58 5.859 18.164 0 .391-.016 1.107-.049 2.149v2.246h-36.768c.098 6.087 1.661 10.84 4.688 14.258 3.06 3.385 7.161 5.078 12.305 5.078 5.664 0 11.344-1.497 17.041-4.492l1.269 6.592c-5.436 3.32-11.637 4.98-18.603 4.98ZM805.666 423v-53.564h6.836l1.025 7.666c2.116-2.637 4.753-4.753 7.911-6.348 3.19-1.628 6.624-2.442 10.302-2.442 6.185 0 10.759 1.742 13.721 5.225 2.962 3.451 4.443 8.773 4.443 15.967V423h-8.154c0-21.484-.016-32.992-.049-34.521-.13-4.558-1.058-7.894-2.783-10.01-1.693-2.116-4.541-3.174-8.545-3.174-4.199 0-7.699 1.009-10.498 3.027-2.799 2.018-4.622 4.639-5.469 7.862-.325 2.181-.488 4.687-.488 7.519V423h-8.252Zm57.813 0v-53.564h6.835l1.026 7.666c2.116-2.637 4.752-4.753 7.91-6.348 3.19-1.628 6.624-2.442 10.303-2.442 6.185 0 10.758 1.742 13.72 5.225 2.963 3.451 4.444 8.773 4.444 15.967V423h-8.155c0-21.484-.016-32.992-.048-34.521-.131-4.558-1.058-7.894-2.784-10.01-1.692-2.116-4.541-3.174-8.544-3.174-4.2 0-7.699 1.009-10.498 3.027-2.8 2.018-4.623 4.639-5.469 7.862-.326 2.181-.489 4.687-.489 7.519V423h-8.251Zm88.671-43.652c-2.376-2.865-5.647-4.297-9.814-4.297s-7.568 1.481-10.205 4.443c-2.637 2.93-4.183 6.95-4.639 12.061h28.272c0-5.306-1.205-9.375-3.614-12.207Zm-8.203 44.775c-7.78 0-13.916-2.474-18.408-7.422-4.46-4.948-6.689-11.719-6.689-20.312 0-8.301 2.164-15.023 6.494-20.166 4.329-5.176 10.026-7.813 17.09-7.911 6.64 0 11.897 2.279 15.771 6.836 3.906 4.525 5.859 10.58 5.859 18.164 0 .391-.016 1.107-.048 2.149v2.246h-36.768c.098 6.087 1.66 10.84 4.688 14.258 3.059 3.385 7.161 5.078 12.304 5.078 5.664 0 11.345-1.497 17.041-4.492l1.27 6.592c-5.436 3.32-11.638 4.98-18.604 4.98Zm55.469-55.176c1.464 0 2.804.098 4.004.293l-.29 7.52c-1.5-.261-2.8-.391-3.909-.391-4.558 0-8.269 1.595-11.133 4.785-2.832 3.158-4.248 7.08-4.248 11.768V423h-8.154c-.033-32.878-.049-50.732-.049-53.564h6.787l.781 9.619c1.856-3.028 4.216-5.469 7.08-7.325 2.865-1.855 5.908-2.783 9.131-2.783Zm5.564.489h8.64l16.9 44.58 15.04-44.58h8.64c-14.45 39.778-21.92 60.286-22.41 61.523-2.25 5.631-4.97 9.749-8.16 12.353-3.19 2.637-7.38 3.956-12.59 3.956-1.57 0-3.21-.131-4.93-.391l-.49-6.934c1.82.131 3.19.196 4.1.196 3.68 0 6.46-.684 8.35-2.051 1.92-1.335 3.63-3.858 5.13-7.568 1.33-3.418 2.32-6.055 2.97-7.911l-21.19-53.173ZM697.561 315l78.955-214.746h43.213L897.512 315h-40.723l-21.24-60.645h-75.147L739.016 315h-41.455Zm72.802-90.234h55.078c-17.578-56.348-26.611-85.45-27.099-87.305l-27.979 87.305ZM916.848 315V154.014h32.226l4.981 24.609c10.547-16.894 25.83-25.342 45.849-25.342 4.196 0 7.616.196 10.256.586l-.59 32.08c-3.9-.586-7.96-.879-12.156-.879-14.16 0-24.756 3.76-31.787 11.28-6.934 7.519-10.4 17.968-10.4 31.347V315h-38.379Zm168.162 2.93c-23.73 0-42.72-4.053-56.98-12.159l3.95-28.857c6.45 3.516 14.65 6.69 24.61 9.522 9.96 2.734 19.05 4.101 27.25 4.101 8.5 0 15.09-1.562 19.78-4.687 4.78-3.223 7.22-7.911 7.32-14.063 0-5.566-2.25-9.961-6.74-13.183-4.39-3.223-12.84-7.227-25.34-12.012-4.3-1.563-7.08-2.588-8.35-3.076-14.84-5.762-25.54-12.159-32.08-19.19-6.54-7.129-9.81-16.748-9.81-28.857 0-14.649 5.27-25.879 15.82-33.692 10.64-7.812 25.44-11.718 44.38-11.718 20.51 0 38.53 3.857 54.05 11.572l-9.52 26.514c-15.33-7.129-29.93-10.694-43.8-10.694-7.71 0-13.77 1.319-18.16 3.955-4.3 2.539-6.45 6.446-6.45 11.719 0 4.98 2.1 8.887 6.3 11.719 4.2 2.734 12.4 6.347 24.61 10.84.39.097 1.66.537 3.81 1.318 2.15.781 3.81 1.416 4.98 1.904 14.75 5.371 25.59 11.817 32.52 19.336 6.93 7.422 10.4 17.139 10.4 29.151-.1 16.113-5.57 28.564-16.41 37.353-10.84 8.789-26.22 13.184-46.14 13.184Zm167.43.146c-25.88 0-46.04-7.422-60.49-22.265-14.36-14.942-21.54-35.547-21.54-61.817 0-25.586 6.79-45.947 20.36-61.084 13.58-15.137 32.08-22.754 55.52-22.851 22.17 0 39.36 6.933 51.56 20.8 12.31 13.868 18.46 32.276 18.46 55.225 0 1.66-.05 4.346-.15 8.057v8.203h-107.08c.39 15.039 4.5 26.709 12.31 35.01 7.91 8.203 18.75 12.304 32.52 12.304 17.58 0 34.47-4.59 50.68-13.769l5.42 27.246c-16.11 9.961-35.3 14.941-57.57 14.941Zm-42.62-99.902h70.31c0-13.086-2.98-23.145-8.94-30.176-5.95-7.031-14.21-10.547-24.75-10.547-9.87 0-18.22 3.418-25.05 10.254-6.74 6.836-10.6 16.992-11.57 30.469ZM1347.66 315V154.014h30.91l4.24 20.361c16.41-16.211 34.62-24.316 54.64-24.316 18.75 0 32.77 5.42 42.04 16.259 9.38 10.743 14.07 26.368 14.07 46.875V315h-38.53v-97.119c-.1-12.988-2.2-22.705-6.3-29.151-4.1-6.445-11.47-9.668-22.12-9.668-8.3 0-15.91 2.149-22.85 6.446-6.83 4.199-11.81 9.521-14.94 15.967-1.86 7.617-2.78 19.336-2.78 35.156V315h-38.38Zm184.57 0V154.014h38.38V315h-38.38Zm0-184.424V97.764h38.52v32.812h-38.52ZM1611.62 315V154.014H1650V315h-38.38Zm0-184.424V97.764h38.53v32.812h-38.53ZM1773.2 315V100.4h39.69v182.959h89.8L1901.52 315H1773.2Zm154.24 0V154.014h38.38V315h-38.38Zm0-184.424V97.764h38.53v32.812h-38.53ZM2005.96 315V94.687l38.38-2.49v98.877l-.88 32.52c.1-.098 1.07-1.074 2.93-2.93 1.95-1.855 3.03-2.881 3.22-3.076 5.37-6.348 11.18-12.891 17.43-19.629 6.35-6.738 14.31-14.99 23.88-24.756 9.67-9.765 15.97-16.162 18.9-19.189h45.7l-66.21 68.554L2159.77 315h-46.44l-53.03-73.096-15.96 12.598V315h-38.38Zm171.97 0V94.687l38.38-2.49v46.436c0 2.246-.15 8.496-.44 18.75-.29 10.156-.44 15.332-.44 15.527 12.79-15.234 29.98-22.851 51.56-22.851 17.97 0 31.89 5.175 41.75 15.527 9.96 10.254 14.94 26.074 14.94 47.461V315h-38.38v-97.705c0-13.184-2.09-22.852-6.29-29.004-4.2-6.152-11.33-9.229-21.39-9.229-8.59 0-16.21 2.198-22.85 6.592-6.64 4.297-11.62 9.864-14.94 16.7-2.35 8.984-3.52 20.703-3.52 35.156V315h-38.38Zm226.17 3.076c-14.94 0-27.05-4.101-36.32-12.305-9.18-8.3-13.77-20.214-13.77-35.742 0-16.699 5.46-29.052 16.4-37.06 10.94-8.106 27.44-13.233 49.51-15.381 3.03-.391 6.3-.781 9.82-1.172 3.51-.391 7.47-.781 11.86-1.172 4.4-.39 7.86-.732 10.4-1.025v-8.496c0-9.766-2.24-16.846-6.73-21.241-4.5-4.492-11.33-6.738-20.51-6.738-13.09 0-29.25 3.662-48.49 10.986-.1-.292-1.71-4.736-4.83-13.33-3.13-8.593-4.74-12.988-4.84-13.183 18.95-8.106 39.46-12.158 61.53-12.158 21.68 0 37.45 4.736 47.31 14.209 9.86 9.375 14.8 24.609 14.8 45.703V315h-28.42c-.1-.391-1.17-3.662-3.22-9.814-2.06-6.153-3.08-9.424-3.08-9.815-8.01 7.813-15.87 13.574-23.58 17.285-7.62 3.614-16.9 5.42-27.84 5.42Zm10.4-27.246c8.89 0 16.61-2.1 23.15-6.299 6.64-4.297 11.38-9.472 14.21-15.527v-31.055c-.3 0-2.88.196-7.77.586-4.78.391-7.37.586-7.76.586-15.53 1.367-26.9 4.297-34.13 8.789-7.23 4.492-10.84 11.719-10.84 21.68 0 6.836 2 12.109 6.01 15.82 4 3.613 9.71 5.42 17.13 5.42Zm184.87 27.246c-24.61 0-43.8-7.324-57.57-21.972-13.67-14.649-20.51-35.596-20.51-62.842 0-26.367 7.18-46.826 21.53-61.377 14.46-14.551 33.45-21.826 56.99-21.826 18.84 0 34.76 4.052 47.75 12.158l-9.08 27.392c-13.28-6.933-25.64-10.4-37.06-10.4-12.99 0-23.24 4.639-30.76 13.916-7.43 9.277-11.14 22.803-11.14 40.576 0 17.969 3.67 31.641 10.99 41.016 7.42 9.375 17.87 14.062 31.35 14.062 14.06 0 27.59-4.15 40.57-12.451l3.67 29.151c-6.74 4.492-13.72 7.714-20.95 9.667-7.23 1.954-15.82 2.93-25.78 2.93Zm77.19-3.076V94.687l38.38-2.49v46.436c0 2.246-.14 8.496-.44 18.75-.29 10.156-.44 15.332-.44 15.527 12.8-15.234 29.98-22.851 51.57-22.851 17.97 0 31.88 5.175 41.75 15.527 9.96 10.254 14.94 26.074 14.94 47.461V315h-38.38v-97.705c0-13.184-2.1-22.852-6.3-29.004-4.2-6.152-11.33-9.229-21.39-9.229-8.59 0-16.21 2.198-22.85 6.592-6.64 4.297-11.62 9.864-14.94 16.7-2.34 8.984-3.52 20.703-3.52 35.156V315h-38.38Zm258.11 3.076c-25.88 0-46.05-7.422-60.5-22.265-14.35-14.942-21.53-35.547-21.53-61.817 0-25.586 6.79-45.947 20.36-61.084s32.08-22.754 55.52-22.851c22.17 0 39.35 6.933 51.56 20.8 12.3 13.868 18.46 32.276 18.46 55.225 0 1.66-.05 4.346-.15 8.057v8.203h-107.08c.39 15.039 4.49 26.709 12.31 35.01 7.91 8.203 18.75 12.304 32.51 12.304 17.58 0 34.48-4.59 50.69-13.769l5.42 27.246c-16.12 9.961-35.3 14.941-57.57 14.941Zm-42.63-99.902h70.32c0-13.086-2.98-23.145-8.94-30.176-5.96-7.031-14.21-10.547-24.76-10.547-9.86 0-18.21 3.418-25.04 10.254-6.74 6.836-10.6 16.992-11.58 30.469ZM3074.42 315l-64.16-160.986h40.72c1.56 4.394 6.49 18.066 14.79 41.015 8.4 22.852 13.97 38.428 16.7 46.729 5.57 16.211 9.57 28.467 12.01 36.767 0-.097.83-3.271 2.49-9.521 1.66-6.25 3.23-12.109 4.69-17.578 1.56-5.567 2.54-8.936 2.93-10.108.1-.195 4.54-13.672 13.33-40.429 8.89-26.758 14.16-42.383 15.82-46.875h40.43L3113.23 315h-38.81Z" class="text"/></svg>